<svg version="1.1" id="Layer_1" xmlns="http://www.w3.org/2000/svg" xmlns:xlink="http://www.w3.org/1999/xlink" x="0px" y="0px"
	 width="100%" viewBox="0 0 1024 592" enable-background="new 0 0 1024 592" xml:space="preserve">
<path fill="#000000" opacity="1.000000" stroke="none" 
	d="
M358.049133,557.908691 
	C354.892578,557.852417 352.227570,557.764771 349.562317,557.756165 
	C342.152191,557.732178 336.610687,554.666321 332.425720,548.402893 
	C329.482147,543.997437 326.053833,539.757629 322.168823,536.173645 
	C314.921844,529.488098 310.590363,521.433472 307.921997,512.037781 
	C302.602539,493.307007 296.108276,474.912354 291.716309,455.914520 
	C290.814026,452.011719 289.065491,451.727142 286.199768,453.994446 
	C278.995728,459.694092 274.276031,467.082642 272.351898,475.975525 
	C267.597534,497.949280 269.775085,519.369141 278.676086,539.993469 
	C283.862610,552.011108 278.791931,560.118347 265.643555,560.144836 
	C253.643890,560.168945 241.644058,560.119873 229.644424,560.149658 
	C221.075027,560.170959 214.031860,557.620850 209.659393,549.534912 
	C207.278030,545.131042 203.920792,541.267944 200.202957,537.954346 
	C194.213486,532.616028 191.685486,526.013916 190.873734,518.211609 
	C188.222153,492.725403 184.710800,467.332275 183.074249,441.735901 
	C182.326782,430.045013 185.086258,419.837830 192.752106,410.707031 
	C205.608383,395.393768 206.567657,382.985809 196.268997,365.854889 
	C181.564575,341.395355 171.862671,315.173004 168.149841,286.893372 
	C164.603256,259.880005 167.591049,233.435562 176.390503,207.630905 
	C179.330444,199.009369 180.462082,199.780823 171.406494,196.289368 
	C161.511002,192.474091 152.444382,187.271759 144.741791,179.925720 
	C142.549759,177.835159 140.457184,177.481293 137.543121,178.162903 
	C125.042305,181.086838 112.440224,181.159515 99.887573,178.485901 
	C92.619682,176.937897 89.087631,171.900024 90.485291,165.673981 
	C91.969437,159.062668 97.157967,156.009262 104.571716,157.511520 
	C112.097977,159.036560 119.616745,159.158508 128.119156,158.203888 
	C125.552521,151.510513 122.944885,145.578384 122.134956,139.158173 
	C120.273506,124.402817 122.197403,110.706474 134.228088,100.422859 
	C146.970032,89.531273 166.135956,88.594116 178.783020,97.822372 
	C191.135269,106.835510 195.764297,125.574615 189.494827,141.261322 
	C185.871735,150.326569 180.097672,157.692200 172.025818,163.224747 
	C169.974747,164.630585 167.924606,166.037750 165.127502,167.956360 
	C169.878845,172.189697 175.284622,174.222748 180.503738,176.396240 
	C188.057388,179.541916 188.158432,179.398972 192.474274,172.433624 
	C216.144592,134.231857 249.945099,108.151237 290.803589,90.708038 
	C326.166199,75.611130 363.339630,67.732513 401.436920,63.554123 
	C433.001312,60.092239 464.611603,59.658279 496.227722,61.895790 
	C559.034912,66.340729 620.741577,77.049347 680.950623,95.739609 
	C684.811523,96.938095 687.293213,96.299171 690.233826,93.517105 
	C706.873901,77.774200 726.196045,67.308281 749.237793,64.411850 
	C768.544617,61.984928 782.088562,71.377975 786.360840,90.289948 
	C786.833313,92.381699 787.380737,94.456543 787.873474,96.458458 
	C790.202271,97.508553 791.500183,95.776138 792.948914,94.893898 
	C803.503662,88.466248 814.957886,84.618362 827.154602,83.005867 
	C847.537231,80.311142 862.000916,92.927849 863.456116,113.379341 
	C864.722412,131.175385 863.047791,148.489227 852.779053,163.144196 
	C847.056458,171.311279 847.788269,176.798157 853.089539,183.842102 
	C856.879578,188.878113 859.545715,194.750992 863.246521,199.864594 
	C877.475830,219.526276 897.109741,229.979004 921.120422,230.454254 
	C938.366394,230.795624 950.023010,238.322464 956.182617,253.584915 
	C966.000061,277.910797 964.375977,301.841705 950.444336,324.415009 
	C943.907410,335.006622 934.321655,341.575195 921.983521,343.777771 
	C918.941162,344.320892 916.350159,345.529510 913.794189,347.178131 
	C867.337219,377.143585 817.244568,398.766113 763.677551,412.347443 
	C756.421448,414.187134 749.091553,415.776184 741.735840,417.163391 
	C738.643127,417.746674 737.012268,419.223694 736.366577,422.167267 
	C728.714417,457.047455 727.640808,491.472626 743.222778,524.813721 
	C745.140381,528.916809 747.588440,532.665955 749.984253,536.470215 
	C752.043274,539.739441 753.737915,543.092834 753.418823,547.197021 
	C752.990173,552.711121 749.822510,556.371704 744.339600,557.521912 
	C741.026672,558.216919 737.698303,558.015442 734.375549,557.982849 
	C720.720703,557.848938 707.055115,558.604126 693.411438,557.413696 
	C688.411621,556.977478 684.585938,554.711914 681.748230,550.641968 
	C676.594971,543.251099 671.111206,536.124512 664.853882,529.621765 
	C658.603394,523.126160 658.486755,514.454407 656.770691,506.410950 
	C654.407532,495.334381 651.888428,484.308258 648.615112,473.462921 
	C648.238220,472.213989 648.038330,470.836792 646.114441,469.792114 
	C642.880066,473.658325 643.212891,478.631470 642.420227,483.091705 
	C638.871155,503.061096 642.278381,522.180664 650.028931,540.692322 
	C651.131348,543.325439 651.975342,546.054382 651.975403,548.903564 
	C651.975464,555.097717 647.268616,559.909302 640.194702,560.039551 
	C625.701111,560.306580 611.195251,560.275391 596.701355,559.999695 
	C589.974426,559.871826 584.559021,556.858887 581.300537,550.577942 
	C578.200317,544.602173 573.586365,539.721863 569.252686,534.674316 
	C565.042908,529.770996 562.896912,524.194885 562.730042,517.797913 
	C562.131775,494.871246 558.495667,472.452728 551.657104,450.547089 
	C549.697144,444.268677 549.009338,443.693542 542.445679,444.539307 
	C510.315552,448.679535 478.063812,450.006744 445.730316,448.074310 
	C428.461731,447.042206 411.181885,445.731384 394.128357,442.627075 
	C389.569153,441.797150 388.196747,444.019653 387.324707,447.706757 
	C383.567780,463.591797 384.198761,479.506439 387.784393,495.227539 
	C391.264374,510.485382 395.501495,525.490112 404.314728,538.894287 
	C410.376404,548.113647 404.872437,557.478027 393.530212,557.805725 
	C381.875671,558.142456 370.204468,557.901489 358.049133,557.908691 
M837.602234,105.763809 
	C835.136108,104.484940 832.567810,104.450844 829.834717,104.722580 
	C818.613159,105.838249 808.580627,110.148811 799.264404,116.174454 
	C795.585632,118.553841 791.734924,121.009644 789.137390,125.680771 
	C804.463074,133.847183 818.564270,143.417282 831.062134,155.224152 
	C834.919800,152.001373 836.856201,148.042038 838.278137,144.021408 
	C842.712891,131.481506 844.197937,118.830353 837.602234,105.763809 
M924.500854,319.219574 
	C928.050903,317.229980 931.072876,314.621368 933.079407,311.071594 
	C941.791626,295.658661 943.042358,279.491333 936.562927,263.135620 
	C931.907166,251.383270 921.740417,250.279800 913.875061,260.168365 
	C907.943115,267.626160 904.789917,276.266815 903.267273,285.638519 
	C901.876770,294.196838 902.219971,302.535858 905.574768,310.572540 
	C909.184631,319.220123 915.576172,322.274597 924.500854,319.219574 
M372.277771,537.630493 
	C375.360046,537.474182 378.581390,538.021545 381.854492,535.711121 
	C379.302002,529.536377 376.816071,523.418884 374.232208,517.343018 
	C373.563965,515.771729 372.034241,515.427063 370.453339,515.426514 
	C359.460144,515.422607 348.466919,515.419617 337.473724,515.426025 
	C335.896973,515.427002 334.456451,515.821960 333.700012,517.362915 
	C332.864319,519.065186 334.039429,520.165833 335.027313,521.303223 
	C338.958527,525.829285 342.938782,530.314575 346.783966,534.912720 
	C348.418030,536.866760 350.277740,537.719543 352.839600,537.668518 
	C359.000092,537.545837 365.164734,537.631531 372.277771,537.630493 
M809.218384,243.689926 
	C809.812927,242.887131 810.475037,242.125351 810.991272,241.275009 
	C815.129089,234.458862 813.967651,226.097046 808.179138,220.822464 
	C802.112366,215.294296 794.157349,214.748947 787.554016,219.408447 
	C780.996033,224.035934 778.778809,231.961105 781.751465,239.287384 
	C785.411438,248.307526 798.551819,253.967300 809.218384,243.689926 
M711.487244,537.618103 
	C717.021973,537.309509 722.686096,538.289795 728.620117,536.356445 
	C725.819397,529.897461 723.263367,523.978210 720.683167,518.069519 
	C720.014587,516.538330 718.669983,515.714294 717.121155,515.697266 
	C706.134949,515.576355 695.144043,515.378418 684.162964,515.607178 
	C680.977051,515.673523 680.438843,518.086670 682.327087,520.591309 
	C683.929138,522.716187 686.129822,524.473816 687.375427,526.768555 
	C692.467468,536.149231 700.247620,539.420715 711.487244,537.618103 
M170.726151,123.148804 
	C168.351440,115.888496 163.876450,112.734474 156.630508,113.214012 
	C149.957352,113.655640 144.706421,118.164337 143.539841,124.930374 
	C142.132355,133.093719 143.821976,140.823334 147.622742,148.114578 
	C148.403854,149.613022 149.258636,150.902710 151.480377,150.353851 
	C161.519852,147.873566 171.359100,134.557419 170.726151,123.148804 
M218.099335,529.429321 
	C220.082474,531.888489 222.080261,534.335999 224.043625,536.810852 
	C225.362671,538.473572 227.032410,539.501648 229.167114,539.467834 
	C237.475464,539.336426 245.782501,539.122070 254.090805,538.985657 
	C257.362488,538.931885 258.065002,537.435120 257.110321,534.467590 
	C256.094574,531.310242 255.254898,528.081909 254.573975,524.835205 
	C253.890686,521.577209 252.308731,520.103027 248.768127,520.168762 
	C238.627304,520.356934 228.480621,520.208679 218.336578,520.261047 
	C216.417511,520.270935 214.296326,519.985107 212.735733,522.279175 
	C213.797287,524.815308 215.940094,526.704834 218.099335,529.429321 
M612.460266,520.241150 
	C604.816284,520.248047 597.172302,520.248169 589.528320,520.267578 
	C588.017029,520.271423 586.389099,520.292908 585.588257,521.838745 
	C584.755920,523.445312 585.869507,524.662231 586.796875,525.853455 
	C589.552673,529.393311 592.337646,532.911438 595.031250,536.498108 
	C596.213135,538.071960 597.610474,539.021790 599.621887,539.009521 
	C607.763794,538.959900 615.905884,538.901367 624.047852,538.903198 
	C627.138062,538.903870 628.285034,537.446899 627.629211,534.500610 
	C627.304932,533.043518 626.908630,531.600952 626.501160,530.164185 
	C623.676086,520.201599 623.672363,520.202637 612.460266,520.241150 
M844.188660,339.651306 
	C853.799194,344.539551 863.723938,346.945892 874.378235,343.756104 
	C863.539246,341.925201 852.905273,339.264191 842.369263,336.485687 
	C841.683716,338.474701 842.918152,338.726318 844.188660,339.651306 
z"/>
<path fill="#000000" opacity="1.000000" stroke="none" 
	d="
M907.841248,295.730530 
	C906.149292,290.161713 906.279968,285.149628 909.189941,280.421844 
	C910.386597,278.477722 912.001587,276.964783 914.416077,277.175323 
	C916.810974,277.384155 918.295166,279.081512 919.067505,281.218506 
	C920.913757,286.326569 920.681763,291.346466 918.047119,296.177307 
	C915.386902,301.055206 909.980896,301.766693 907.841248,295.730530 
z"/>
<path fill="#000000" opacity="1.000000" stroke="none" 
	d="
M939.011169,285.398865 
	C939.162048,289.892914 938.355408,293.775024 936.147644,297.236633 
	C934.936707,299.135315 933.190125,300.466858 930.740967,300.148773 
	C928.470215,299.853851 927.303650,298.173492 926.627991,296.232635 
	C924.903442,291.278687 925.299500,286.397614 927.616516,281.716858 
	C928.842773,279.239532 930.556335,277.016205 933.667358,277.353577 
	C936.555359,277.666718 937.644470,280.063019 938.371033,282.559113 
	C938.603210,283.356842 938.759583,284.176666 939.011169,285.398865 
z"/>
</svg>